Coordinates
version=1
nRows=6
nColumns=34
inDegrees=yes

Units are S.I. units (second, meters, Newtons, ...)
If the header above contains a line with 'inDegrees', this indicates whether rotational values are in degrees (yes) or radians (no).

endheader
time	pelvis_tilt	pelvis_list	pelvis_rotation	pelvis_tx	pelvis_ty	pelvis_tz	hip_flexion_r	hip_adduction_r	hip_rotation_r	knee_angle_r	ankle_angle_r	subtalar_angle_r	mtp_angle_r	hip_flexion_l	hip_adduction_l	hip_rotation_l	knee_angle_l	ankle_angle_l	subtalar_angle_l	mtp_angle_l	lumbar_extension	lumbar_bending	lumbar_rotation	arm_flex_r	arm_add_r	arm_rot_r	elbow_flex_r	pro_sup_r	arm_flex_l	arm_add_l	arm_rot_l	elbow_flex_l	pro_sup_l
      7.30000000	    -43.93575450	      2.00116626	      7.01707500	      0.99199919	      0.75591107	     -0.09112776	    103.54281123	    -21.17313071	      3.29308298	    101.18174794	     16.90981783	    -32.10457386	      0.00000000	    105.05804550	    -13.11206951	     -8.02919800	     98.94759915	     10.02489214	    -27.29815772	      0.00000000	    -43.42196902	      1.28357600	     -6.65849066	     58.75354211	    -33.56423252	     16.26038800	     78.95512799	     79.44062533	     82.85288560	    -22.13418327	     47.31869664	     29.14549338	     56.60498092
      7.31666670	    -42.89938812	      1.74458995	      7.46973115	      1.01188297	      0.77837800	     -0.08848934	     99.68124798	    -21.76644208	      1.75985802	     98.34825642	     17.15121340	    -32.73769151	      0.00000000	    101.54004452	    -12.68228760	     -6.93086011	     97.57507951	      7.71215732	    -28.29366503	      0.00000000	    -43.76826701	      2.31346518	     -6.57852821	     52.89913559	    -33.20023758	     13.72569682	     78.15393859	     79.54282365	     77.63703499	    -22.53056388	     47.81165560	     25.96446015	     56.73550531
      7.33333330	    -42.49856782	      1.33325496	      8.34563885	      0.99980753	      0.79158746	     -0.08405306	     97.23784725	    -22.14626433	      0.58856234	     95.53390558	     18.36722806	    -31.50440083	      0.00000000	     99.60632580	    -11.99528098	     -5.87887060	     96.04098886	      6.09064044	    -28.18217254	      0.00000000	    -42.83320899	      3.20473517	     -5.27222452	     44.82187311	    -34.02045648	      7.84617916	     79.14153960	     80.78245167	     75.03725624	    -20.62724947	     52.19789193	     19.46436535	     57.03615587
      7.35000000	    -41.74999003	      1.26340200	      8.37507719	      1.01669905	      0.81829865	     -0.08752103	     93.57795679	    -22.01819549	     -0.59784933	     91.94707214	     17.69041757	    -32.93603361	      0.00000000	     95.09436097	    -11.49593767	     -4.54337103	     92.46479854	     10.29442965	    -22.73526549	      0.00000000	    -42.06284270	      4.07568584	     -4.74309524	     38.52043634	    -32.94207813	      4.38088961	     76.08133256	     83.92118440	     70.03965469	    -20.14045649	     58.72609414	     14.58162332	     54.63340552
      7.36666670	    -40.47345715	      1.76351075	      7.78640321	      1.01218537	      0.83869485	     -0.07943597	     90.31142908	    -21.06698988	     -0.96712899	     88.67806842	     18.06182937	    -32.74510914	      0.00000000	     90.05289147	    -11.24578070	     -3.64160195	     87.97373276	     16.83109576	    -16.03137487	      0.00000000	    -41.39248354	      3.76208579	     -4.82048981	     33.78217384	    -30.74881558	      1.80986299	     72.02140527	     84.01522787	     63.90525011	    -21.32797971	     59.20920482	     13.34099804	     53.73119080
      7.38333330	    -38.46315387	      2.35166655	      6.59731194	      1.04119990	      0.86674065	     -0.06876651	     84.83087359	    -19.64549127	     -1.42880262	     84.57272138	     18.11719005	    -33.31816452	      0.00000000	     84.16135736	    -11.93407729	     -3.10093395	     83.83907902	     19.62132754	    -12.33165231	      0.00000000	    -41.82672801	      2.74283121	     -5.01711016	     29.82457941	    -26.86190442	     -0.52306022	     66.46658484	     85.27715659	     56.59583529	    -22.71302087	     57.52868849	     13.08363852	     50.62562035
